PathFileType	4	(X/Y/Z)	OpenSim_Sub04_CSBaseline_Gyro.trc
DataRate	CameraRate	NumFrames	NumMarkers	Units	OrigDataRate	OrigDataStartFrame	OrigNumFrames
100	100	20	8	m	100	6063	8083
Frame#	Time	torso_imu_offset_imu	pelvis_imu_offset_imu	tibia_r_imu_offset_imu	femur_r_imu_offset_imu	tibia_l_imu_offset_imu	femur_l_imu_offset_imu	toes_r_imu_offset_imu	toes_l_imu_offset_imu
				X1	Y1	Z1	X2	Y2	Z2	X3	Y3	Z3	X4	Y4	Z4	X5	Y5	Z5	X6	Y6	Z6	X7	Y7	Z7	X8		Y8	Z8	

6063	60.62000000	0.47003116	-0.07169869	-0.32038191	-0.02479240	-0.23717254	0.04537998	0.18238584	-0.61394418	-2.34864819	0.15616822	0.67842246	1.48268815	0.12838047	-0.63042477	1.10660196	0.35196031	-0.42385093	0.63253199	1.23656114	-5.68011252	-2.10721419	-0.27550825	-0.47881896	0.22458413
6064	60.63000000	0.56759417	-0.07202156	-0.34324403	-0.09772454	-0.19675373	0.08437790	0.23057199	-0.72418287	-2.36937031	0.06782349	0.78383095	1.66723640	0.54877475	-0.66474544	0.95753256	1.15458943	-0.62378342	0.81616591	1.16947536	-5.31161162	-2.02531826	-0.30419618	-0.34181507	0.28795443
6065	60.64000000	0.65858346	-0.06135354	-0.36143936	-0.18037665	-0.17613982	0.12749828	0.26696307	-0.72740899	-2.40731668	0.05386069	0.83100980	1.83910213	0.87625928	-0.65595260	0.91492979	1.75006188	-0.79642865	0.78293545	-0.09283448	-5.04798289	-1.71036659	-0.34589996	-0.24854692	0.32086183
6066	60.65000000	0.73113945	-0.04443133	-0.36982426	-0.24532199	-0.14514568	0.16218132	0.21822135	-0.65940736	-2.46275105	0.12176669	0.80366035	1.98621533	1.20769661	-0.70813187	0.89775358	2.02703932	-0.79047184	0.60259991	-0.07469953	-4.79577381	-1.75284483	-0.24138803	-0.17444338	0.28507257
6067	60.66000000	0.78282199	-0.03281463	-0.36675577	-0.26395341	-0.08125765	0.19079158	0.11373740	-0.55994395	-2.49296100	0.25085527	0.72720417	2.08988079	1.51927186	-0.61210238	0.86818680	1.84828268	-0.80316172	0.30175791	0.23218636	-4.29020228	-1.85028680	-0.06746041	-0.15381344	0.19905431
6068	60.67000000	0.80016729	-0.02639693	-0.35991776	-0.24611567	-0.01390954	0.20364884	0.02092792	-0.49307862	-2.45792834	0.41184547	0.62102562	2.07687837	1.34317322	-0.48076688	0.79570997	1.40461893	-0.66238458	0.09097180	0.55909834	-3.76376204	-1.89087012	0.02592508	-0.19346168	0.11501367
6069	60.68000000	0.79241375	-0.00234184	-0.36441675	-0.19716423	0.05453415	0.20426832	-0.14065532	-0.49614010	-2.34808624	0.56456618	0.51422649	1.95277390	0.80747847	-0.39254401	0.71651253	0.89686959	-0.43824251	0.01738211	0.29775850	-3.07409831	-1.73689571	0.07134630	-0.19587380	0.05935921
6070	60.69000000	0.77314663	0.04346927	-0.37561602	-0.14171952	0.09089959	0.18691186	-0.29025437	-0.48679440	-2.05732931	0.67281157	0.42254170	1.88118334	0.25338807	-0.35013658	0.68166663	0.60838992	-0.22001697	0.12965994	-0.81426264	-1.21803567	-1.23182862	0.09372959	-0.22615186	0.02067688
6071	60.70000000	0.74588313	0.10137604	-0.38308104	-0.07708207	0.08926749	0.16625584	-0.64438733	-0.57167644	-1.51476748	0.68981871	0.35389674	1.83476926	-0.14080240	-0.32071815	0.68069612	0.55011246	-0.04830273	0.43008002	-1.01602344	0.03931756	-1.00789158	0.16843045	-0.24880537	-0.00574571
6072	60.71000000	0.72443936	0.16202229	-0.39328623	-0.02769943	0.05579372	0.12137557	-1.29540629	-0.76074770	-0.86847292	0.67608023	0.30993170	1.76177993	-0.38103633	-0.31717576	0.67312243	0.39400370	-0.12808685	0.67559455	-0.13929713	0.33386938	-1.08218772	0.23447691	-0.28516637	-0.01533474
6073	60.72000000	0.69486347	0.21171205	-0.39663168	-0.00571553	0.00499521	0.07856606	-1.58786138	-0.65123614	-0.21883114	0.67552955	0.32299688	1.75990077	-0.33915924	-0.28488886	0.65743925	0.11148593	-0.34814735	0.84147972	0.40383423	0.63574098	-0.84683759	0.26674873	-0.29356729	-0.01570154
6074	60.73000000	0.68647938	0.24414654	-0.40947025	-0.00692285	-0.05726744	0.02577180	-1.49141092	-0.25564376	0.37303305	0.69264623	0.41083940	1.74928421	-0.13864656	-0.24361836	0.63572826	-0.06735155	-0.43627381	0.92131723	0.30025736	1.07821954	-0.30997283	0.26170008	-0.32827770	-0.00958869
6075	60.74000000	0.68408664	0.25171181	-0.42943084	-0.03015795	-0.09448701	0.00130664	-1.15028067	0.06726416	0.83442041	0.67806341	0.50531322	1.73985015	-0.00384125	-0.23209750	0.63319782	-0.23361099	-0.60275835	0.83893464	0.08975250	1.48872141	0.25045278	0.25304939	-0.34815518	-0.02374622
6076	60.75000000	0.68726159	0.24380064	-0.44753478	-0.04810937	-0.09790906	0.03284424	-0.62315074	0.16778369	1.14823378	0.62688833	0.55030943	1.74465730	0.17025443	-0.20403602	0.61616667	-0.35246001	-0.72739080	0.72822719	0.02485296	1.83530994	0.69048864	0.25156112	-0.37592535	-0.04216179
6077	60.76000000	0.67847174	0.22568792	-0.46877696	-0.08986979	-0.09753198	0.13180901	-0.08387426	0.20863235	1.40267374	0.59843184	0.58244752	1.74495617	0.27541965	-0.15401687	0.57586637	-0.38393809	-0.78418554	0.67942766	0.06045360	2.14887387	0.98596753	0.22548877	-0.36763749	-0.02432168
6078	60.77000000	0.63543032	0.21923086	-0.48857310	-0.13266163	-0.07485497	0.22517366	0.42047908	0.36813263	1.67592610	0.61262648	0.61095667	1.68478682	0.26227998	-0.15255703	0.52916892	-0.30189734	-0.77417726	0.73024399	0.05139818	2.49792087	1.19587138	0.14306320	-0.38469672	0.02589876
6079	60.78000000	0.62751063	0.22110816	-0.51154136	-0.19643957	-0.03290178	0.27198859	0.73111388	0.57994282	2.02580082	0.66502846	0.62774654	1.57264193	0.21693002	-0.13056217	0.51407164	-0.23330786	-0.73895851	0.75290148	-0.12686585	2.90768970	1.37579202	0.08083351	-0.34764296	0.07026682
6080	60.79000000	0.63132232	0.21589669	-0.51767109	-0.26350352	-0.00224027	0.30606898	0.76647378	0.77618945	2.44498493	0.74359748	0.64379663	1.43936920	0.13467318	-0.10575739	0.54135107	-0.17484998	-0.74311480	0.76247462	-0.43983546	3.35781345	1.55809320	0.02426374	-0.31983810	0.09963284
6081	60.80000000	0.61992657	0.21622751	-0.49877851	-0.31165231	0.03904915	0.32208925	0.68219181	0.91892810	2.87551988	0.81346944	0.64763023	1.29118016	0.06344546	-0.11501171	0.52834789	-0.05558010	-0.67180392	0.77526987	-0.72021033	3.71668776	1.71555093	-0.06598857	-0.31353717	0.16490888
6082	60.81000000	0.59098449	0.21681187	-0.47618850	-0.34849990	0.08918502	0.32712548	0.61769371	1.00843734	3.29525873	0.85434855	0.64638330	1.19096737	-0.04477961	-0.11333844	0.49251428	0.10304572	-0.58557292	0.76502253	-0.89092846	3.94971629	1.82627673	-0.13924770	-0.28105177	0.20185212
